<?xml version="1.0" encoding="utf-8"?>
<!-- Generator: Adobe Illustrator 27.8.0, SVG Export Plug-In . SVG Version: 6.00 Build 0)  -->
<svg version="1.1" id="Layer_1" xmlns="http://www.w3.org/2000/svg" xmlns:xlink="http://www.w3.org/1999/xlink" x="0px" y="0px"
	 viewBox="0 0 512 512" style="enable-background:new 0 0 512 512;" xml:space="preserve">
<style type="text/css">
	.st0{fill:#AFB6BB;}
</style>
<g>
	<path class="st0" d="M491.9,156.4C479,125.9,460.5,98.5,437,75c-23.5-23.5-50.9-42-81.4-54.9C324.1,6.8,290.6,0,256,0
		s-68.1,6.8-99.6,20.1C125.9,33,98.5,51.5,75,75s-42,50.9-54.9,81.4C6.8,187.9,0,221.4,0,256s6.8,68.1,20.1,99.6
		C33,386.1,51.5,413.5,75,437c6.4,6.4,13.1,12.4,20.1,18.1c0,0,0.1,0,0.1,0.1c18.6,15,39.1,27.3,61.2,36.7
		c31.6,13.4,65.1,20.1,99.6,20.1s68.1-6.8,99.6-20.1c22.1-9.4,42.6-21.7,61.2-36.7c0,0,0.1,0,0.1-0.1c7-5.7,13.7-11.7,20.1-18.1
		c23.5-23.5,42-50.9,54.9-81.4c13.4-31.6,20.1-65.1,20.1-99.6S505.2,187.9,491.9,156.4z M349,476.3c-29.5,12.5-60.8,18.8-93,18.8
		s-63.6-6.3-93-18.8c-19.4-8.2-37.5-18.8-54-31.7v-9.6c0-69.2,56.3-125.5,125.5-125.5h43c69.2,0,125.5,56.3,125.5,125.5v9.6
		C386.5,457.4,368.5,468.1,349,476.3z M476.3,349c-12,28.5-29.3,54-51.2,76c-1.7,1.7-3.4,3.3-5.1,5c-1.2-36.2-15.9-70.1-41.6-95.9
		c-26.9-26.9-62.7-41.7-100.7-41.7h-43c-38.1,0-73.8,14.8-100.7,41.7C108,359.9,93.3,393.8,92.1,430c-1.7-1.6-3.5-3.3-5.1-5
		c-22-22-39.2-47.5-51.2-76C23.3,319.6,17,288.3,17,256c0-32.3,6.3-63.6,18.8-93c12-28.5,29.3-54,51.2-76c22-22,47.5-39.2,76-51.2
		C192.4,23.3,223.7,17,256,17s63.6,6.3,93,18.8c28.5,12,54,29.3,76,51.2c22,22,39.2,47.5,51.2,76c12.5,29.5,18.8,60.8,18.8,93
		C495,288.3,488.7,319.6,476.3,349z"/>
	<path class="st0" d="M256,91.8c-50,0-90.7,40.7-90.7,90.7s40.7,90.7,90.7,90.7s90.7-40.7,90.7-90.7S306,91.8,256,91.8z M256,256.2
		c-40.7,0-73.7-33.1-73.7-73.7s33.1-73.7,73.7-73.7c40.7,0,73.7,33.1,73.7,73.7S296.7,256.2,256,256.2z"/>
</g>
</svg>
