<?xml version="1.0" encoding="utf-8"?>
<!-- Generator: Adobe Illustrator 16.0.0, SVG Export Plug-In . SVG Version: 6.00 Build 0)  -->
<!DOCTYPE svg PUBLIC "-//W3C//DTD SVG 1.1//EN" "http://www.w3.org/Graphics/SVG/1.1/DTD/svg11.dtd">
<svg version="1.1" id="Layer_1" xmlns="http://www.w3.org/2000/svg" xmlns:xlink="http://www.w3.org/1999/xlink" x="0px" y="0px"
	 width="218.947px" height="66.595px" viewBox="0 0 218.947 66.595" enable-background="new 0 0 218.947 66.595"
	 xml:space="preserve">
<g>
	<g>
		<polygon points="51.969,38.43 51.969,41.726 51.969,50.696 51.969,51.814 14.585,51.814 14.585,14.691 47.287,14.691 47.287,0 
			0,0 0,66.507 51.969,66.507 66.661,66.507 66.661,51.814 66.661,50.696 66.661,41.726 66.661,25.908 51.969,25.908 		"/>
		<rect x="69.434" width="14.693" height="14.68"/>
	</g>
	<g>
		<g>
			<path d="M98.284,21.771c-0.034-0.194-0.097-0.762-0.188-1.702c-1.17-0.343-2.158-0.514-2.963-0.514
				c-0.729,0-1.399,0.127-2.012,0.381c-0.611,0.254-1.137,0.617-1.577,1.089c-0.439,0.472-0.783,1.046-1.029,1.722
				c-0.247,0.676-0.37,1.436-0.37,2.279c0,0.873,0.123,1.648,0.37,2.328c0.246,0.679,0.581,1.251,1.003,1.716
				c0.421,0.465,0.918,0.82,1.49,1.067c0.572,0.247,1.188,0.37,1.846,0.37c0.393,0,0.749-0.021,1.067-0.064s0.612-0.111,0.88-0.204
				c0.267-0.093,0.521-0.212,0.761-0.36c0.239-0.146,0.478-0.327,0.714-0.542c0.071-0.064,0.146-0.116,0.226-0.156
				c0.079-0.039,0.164-0.059,0.257-0.059c0.157,0,0.293,0.061,0.408,0.182l1.137,1.234c-0.63,0.779-1.403,1.376-2.322,1.791
				c-0.919,0.415-2.022,0.622-3.31,0.622c-1.151,0-2.187-0.196-3.105-0.59s-1.704-0.94-2.354-1.641s-1.149-1.538-1.496-2.51
				c-0.347-0.972-0.52-2.034-0.52-3.186c0-1.166,0.192-2.233,0.579-3.202c0.386-0.969,0.93-1.804,1.63-2.505
				c0.701-0.701,1.539-1.246,2.516-1.636s2.054-0.585,3.233-0.585c1.291,0,2.912,0.373,4.865,1.117v3.956h-1.235
				C98.508,22.172,98.342,22.038,98.284,21.771z"/>
			<path d="M116.654,19.227c-0.059,0.011-0.165,0.03-0.32,0.058c-0.154,0.028-0.366,0.065-0.634,0.113v11.257
				c0.268,0.047,0.479,0.085,0.634,0.113c0.155,0.028,0.262,0.047,0.32,0.058c0.058,0.011,0.103,0.019,0.134,0.024
				c0.358,0.077,0.537,0.3,0.537,0.671v1.261H115.7h-2.905h-1.625V31.52c0-0.371,0.179-0.594,0.536-0.671
				c0.031-0.005,0.076-0.014,0.135-0.024s0.166-0.03,0.32-0.058c0.153-0.028,0.364-0.065,0.632-0.112v-4.653h-7.272v4.653
				c0.268,0.047,0.479,0.084,0.633,0.112s0.261,0.047,0.319,0.058s0.104,0.019,0.135,0.024c0.357,0.077,0.536,0.3,0.536,0.671v1.261
				h-1.623h-2.907h-1.625V31.52c0-0.371,0.179-0.594,0.537-0.671c0.031-0.005,0.076-0.014,0.135-0.024s0.165-0.03,0.319-0.058
				c0.155-0.028,0.366-0.065,0.635-0.112V19.397c-0.269-0.047-0.479-0.085-0.635-0.113c-0.154-0.027-0.261-0.047-0.319-0.058
				c-0.059-0.011-0.104-0.019-0.135-0.024c-0.358-0.077-0.537-0.3-0.537-0.671v-1.261h1.625h2.905h1.625v1.261
				c0,0.371-0.179,0.594-0.536,0.671c-0.031,0.006-0.076,0.014-0.135,0.024s-0.165,0.03-0.319,0.058
				c-0.154,0.028-0.365,0.065-0.633,0.112v4.546h7.272v-4.546c-0.267-0.047-0.478-0.084-0.633-0.112
				c-0.154-0.027-0.261-0.047-0.319-0.058s-0.104-0.019-0.135-0.024c-0.357-0.077-0.536-0.3-0.536-0.671v-1.261h1.623h2.907h1.625
				v1.261c0,0.371-0.179,0.594-0.537,0.671C116.757,19.208,116.712,19.216,116.654,19.227z"/>
			<path d="M134.776,31.686v1.095h-0.762h-1.68h-0.358h-0.193h-2.248v-1.095c0-0.249,0.142-0.432,0.426-0.55
				c0.052-0.021,0.194-0.081,0.429-0.18l-0.083-0.226l-0.771-2.11h-6.178l-0.805,2.2l-0.05,0.136
				c0.235,0.099,0.379,0.159,0.429,0.18c0.284,0.118,0.426,0.301,0.426,0.55v1.095h-2.237h-0.204h-0.358h-1.68h-0.762v-1.095
				c0-0.249,0.143-0.432,0.427-0.55c0.112-0.047,0.505-0.211,1.175-0.494l5.253-13.372h2.95l5.252,13.372
				c0.675,0.285,1.066,0.449,1.176,0.495C134.634,31.254,134.775,31.437,134.776,31.686z M124.1,26.583h4.694l-1.763-4.818
				c-0.088-0.233-0.183-0.503-0.284-0.81c-0.104-0.311-0.206-0.649-0.306-1.014c-0.102,0.368-0.199,0.708-0.295,1.019
				c-0.097,0.313-0.191,0.588-0.284,0.826L124.1,26.583z"/>
			<path d="M154.998,19.227c-0.059,0.011-0.165,0.03-0.319,0.058c-0.155,0.028-0.366,0.065-0.635,0.113v11.258
				c0.269,0.047,0.479,0.084,0.635,0.112c0.154,0.028,0.261,0.047,0.319,0.058s0.104,0.019,0.135,0.024
				c0.357,0.077,0.537,0.3,0.537,0.671v1.261h-1.626h-2.541h-1.936V31.52c0-0.371,0.179-0.594,0.536-0.671
				c0.043-0.007,0.51-0.072,1.398-0.194v-7.892c0.001-0.186,0.006-0.39,0.017-0.611s0.026-0.447,0.048-0.676l-4.688,8.796
				c-0.107,0.2-0.247,0.355-0.418,0.466c-0.172,0.111-0.372,0.167-0.601,0.167h-0.397c-0.229,0-0.429-0.056-0.601-0.167
				s-0.311-0.266-0.418-0.466l-4.752-8.828c0.028,0.236,0.048,0.466,0.059,0.692c0.011,0.225,0.017,0.434,0.017,0.627v7.892
				c0.891,0.123,1.356,0.187,1.397,0.194c0.358,0.077,0.537,0.3,0.537,0.671v1.261h-1.935h-2.543H135.6V31.52
				c0-0.371,0.179-0.594,0.537-0.671c0.031-0.005,0.076-0.014,0.135-0.024s0.165-0.03,0.319-0.058
				c0.155-0.028,0.366-0.065,0.634-0.112V19.397c-0.268-0.047-0.479-0.085-0.634-0.112c-0.154-0.028-0.261-0.047-0.319-0.058
				c-0.059-0.011-0.104-0.02-0.135-0.024c-0.358-0.077-0.537-0.3-0.537-0.671v-1.261h1.626h2.178c0.125,0,0.235,0.003,0.332,0.011
				c0.093,0.007,0.177,0.025,0.252,0.054c0.075,0.029,0.145,0.075,0.209,0.139c0.064,0.064,0.125,0.15,0.183,0.258l4.634,8.613
				c0.122,0.23,0.234,0.468,0.338,0.713c0.103,0.244,0.205,0.493,0.306,0.746c0.099-0.255,0.203-0.509,0.312-0.762
				c0.107-0.251,0.222-0.491,0.343-0.719l4.591-8.592c0.058-0.107,0.116-0.193,0.177-0.257c0.061-0.064,0.129-0.11,0.204-0.139
				c0.076-0.029,0.16-0.047,0.252-0.054c0.095-0.008,0.206-0.011,0.333-0.011h2.178h1.625v1.261c0,0.371-0.18,0.594-0.537,0.671
				C155.102,19.208,155.057,19.216,154.998,19.227z"/>
		</g>
		<g>
			<g>
				<path d="M97.396,38.83v0.966v1.914H96.56c-0.195,0-0.313-0.098-0.354-0.293c-0.017-0.07-0.043-0.331-0.077-0.785
					c-0.035-0.454-0.055-0.713-0.061-0.775c-2.575-0.816-4.515-0.535-5.819,0.844c-0.839,0.886-1.259,2.072-1.259,3.561
					c0,1.495,0.414,2.69,1.241,3.587c0.782,0.856,1.797,1.284,3.044,1.284c0.718,0,1.262-0.068,1.629-0.207
					c0.563-0.207,1.072-0.511,1.526-0.913c0.098-0.087,0.192-0.13,0.284-0.13s0.176,0.037,0.25,0.112l0.655,0.716
					c-1.069,1.241-2.552,1.862-4.448,1.862c-1.771,0-3.195-0.587-4.276-1.759c-1.074-1.161-1.612-2.679-1.612-4.553
					c0-1.867,0.575-3.388,1.725-4.561c1.149-1.172,2.673-1.758,4.569-1.758C94.554,37.942,95.827,38.237,97.396,38.83z"/>
				<path d="M107.299,38.08v2.983h-0.828c-0.201,0-0.321-0.102-0.361-0.303c-0.012-0.051-0.053-0.491-0.121-1.318h-4.621v4.104
					h4.552v1.311h-4.552v4.215h4.63c0.063-0.764,0.101-1.172,0.112-1.224c0.04-0.195,0.16-0.293,0.361-0.293h0.828v2.88h-8.854
					v-0.742c0-0.178,0.087-0.284,0.259-0.318l0.983-0.199v-9.836c-0.552-0.109-0.88-0.176-0.983-0.199
					c-0.172-0.033-0.259-0.141-0.259-0.318V38.08H107.299z"/>
				<path d="M118.364,46.831v-7.492c-0.673-0.115-1.055-0.182-1.146-0.199c-0.173-0.033-0.259-0.141-0.259-0.318V38.08h1.405h1.466
					h1.25v0.741c0,0.178-0.089,0.285-0.268,0.318l-0.982,0.199v11.096h-0.845c-0.236,0-0.435-0.102-0.595-0.303l-7.147-9.302
					c0.023,0.293,0.034,0.561,0.034,0.802v7.543c0.679,0.115,1.061,0.182,1.146,0.199c0.173,0.034,0.259,0.141,0.259,0.318v0.742
					h-4.112v-0.742c0-0.178,0.087-0.284,0.259-0.318l0.983-0.199v-9.836c-0.552-0.109-0.88-0.176-0.983-0.199
					c-0.172-0.033-0.259-0.141-0.259-0.318V38.08h2.104c0.149,0,0.261,0.019,0.332,0.056c0.072,0.037,0.154,0.113,0.246,0.229
					l7.155,9.311C118.379,47.429,118.364,47.146,118.364,46.831z"/>
				<path d="M132.009,38.08v2.733h-0.837c-0.201,0-0.313-0.061-0.336-0.182c-0.023-0.121-0.072-0.503-0.146-1.146h-2.905v9.689
					c0.006,0,0.077,0.016,0.215,0.044c0.443,0.086,0.726,0.142,0.85,0.168s0.186,0.128,0.186,0.306v0.742h-4.164v-0.742
					c0-0.178,0.096-0.287,0.289-0.327c0.192-0.04,0.51-0.104,0.952-0.19v-9.689h-2.914c-0.08,0.649-0.132,1.033-0.155,1.15
					c-0.022,0.118-0.132,0.178-0.327,0.178h-0.837V38.08h9.303h0.595H132.009z"/>
				<path d="M143.441,49.69v0.744h-0.307h-0.937h-0.547c-0.305,0-0.528-0.118-0.672-0.354l-3.207-4.414
					c-0.098-0.139-0.204-0.237-0.319-0.298c-0.114-0.061-0.287-0.091-0.517-0.091h-1.102v3.898c0.009,0.001,0.83,0.164,0.98,0.194
					c0.151,0.03,0.263,0.166,0.263,0.319v0.744h-1.243h-0.001h-1.663h-1.244V49.69c0-0.153,0.111-0.289,0.263-0.319
					s0.981-0.195,0.981-0.195v-9.838c0,0-0.83-0.165-0.981-0.195s-0.263-0.166-0.263-0.318V38.08h1.244h3.326
					c0.781,0,1.457,0.079,2.025,0.237c0.569,0.158,1.039,0.387,1.41,0.686c0.37,0.299,0.645,0.659,0.823,1.082
					c0.178,0.422,0.267,0.895,0.267,1.418c0,0.437-0.068,0.845-0.206,1.224c-0.139,0.38-0.338,0.72-0.6,1.022
					c-0.262,0.301-0.581,0.559-0.957,0.771c-0.377,0.212-0.804,0.373-1.28,0.482c0.207,0.121,0.391,0.296,0.552,0.525l2.682,3.65
					c0.107,0.021,0.827,0.164,0.967,0.192C143.331,49.401,143.441,49.537,143.441,49.69z M138.708,43.886
					c0.371-0.117,0.681-0.283,0.931-0.5c0.25-0.215,0.438-0.473,0.565-0.771c0.126-0.299,0.189-0.629,0.189-0.991
					c0-0.735-0.243-1.29-0.729-1.663c-0.486-0.374-1.209-0.561-2.168-0.561h-1.662v4.664h1.584
					C137.907,44.063,138.337,44.005,138.708,43.886z"/>
				<path d="M155.391,46.81c-0.293,0.772-0.707,1.438-1.241,1.995s-1.177,0.99-1.927,1.298c-0.75,0.307-1.579,0.461-2.487,0.461
					s-1.735-0.154-2.483-0.461c-0.747-0.308-1.388-0.74-1.922-1.298c-0.535-0.558-0.948-1.223-1.241-1.995
					c-0.294-0.773-0.44-1.623-0.44-2.549c0-0.925,0.146-1.773,0.44-2.547c0.293-0.773,0.706-1.439,1.241-2
					c0.534-0.561,1.175-0.996,1.922-1.307c0.748-0.311,1.575-0.465,2.483-0.465s1.737,0.154,2.487,0.465s1.393,0.746,1.927,1.307
					s0.948,1.227,1.241,2s0.439,1.622,0.439,2.547C155.83,45.187,155.684,46.036,155.391,46.81z M153.805,42.218
					c-0.207-0.604-0.5-1.113-0.88-1.529c-0.379-0.418-0.839-0.738-1.379-0.962s-1.144-0.337-1.811-0.337
					c-0.661,0-1.262,0.113-1.802,0.337s-1.002,0.544-1.384,0.962c-0.382,0.416-0.677,0.926-0.884,1.529s-0.311,1.285-0.311,2.043
					c0,0.76,0.104,1.439,0.311,2.039c0.207,0.602,0.502,1.109,0.884,1.526s0.844,0.735,1.384,0.957s1.141,0.332,1.802,0.332
					c0.667,0,1.271-0.11,1.811-0.332s1-0.54,1.379-0.957c0.38-0.417,0.673-0.925,0.88-1.526c0.207-0.6,0.311-1.279,0.311-2.039
					C154.115,43.503,154.012,42.821,153.805,42.218z"/>
				<path d="M171.916,46.787c-0.293,0.759-0.707,1.408-1.241,1.948c-1.121,1.133-2.59,1.699-4.405,1.699h-5.699v-0.742
					c0-0.178,0.087-0.284,0.259-0.318l0.983-0.199v-9.836c-0.552-0.109-0.88-0.176-0.983-0.199
					c-0.172-0.033-0.259-0.141-0.259-0.318V38.08h5.699c1.821,0,3.29,0.565,4.405,1.698c1.121,1.144,1.681,2.639,1.681,4.482
					C172.355,45.187,172.209,46.028,171.916,46.787z M170.33,42.227c-0.207-0.598-0.5-1.104-0.88-1.517
					c-0.775-0.852-1.836-1.276-3.181-1.276h-2.776v9.647h2.776c1.339,0,2.399-0.426,3.181-1.276c0.793-0.856,1.19-2.038,1.19-3.544
					C170.641,43.503,170.537,42.824,170.33,42.227z"/>
				<path d="M182.241,38.08v2.983h-0.828c-0.201,0-0.321-0.102-0.361-0.303c-0.012-0.051-0.053-0.491-0.121-1.318h-4.621v4.104
					h4.552v1.311h-4.552v4.215h4.63c0.063-0.764,0.101-1.172,0.112-1.224c0.04-0.195,0.16-0.293,0.361-0.293h0.828v2.88h-8.854
					v-0.742c0-0.178,0.087-0.284,0.259-0.318l0.983-0.199v-9.836c-0.552-0.109-0.88-0.176-0.983-0.199
					c-0.172-0.033-0.259-0.141-0.259-0.318V38.08H182.241z"/>
				<path d="M98.732,55.353v9.837c0.558,0.109,0.905,0.179,1.043,0.207s0.207,0.132,0.207,0.311v0.741H95.81v-0.741
					c0-0.179,0.087-0.284,0.259-0.319l0.983-0.198v-4.362h-6.656v4.362c0.828,0.167,1.241,0.339,1.241,0.518v0.741h-4.164v-0.741
					c0-0.179,0.087-0.284,0.259-0.319l0.983-0.198v-9.837c-0.552-0.109-0.896-0.178-1.035-0.207
					c-0.138-0.028-0.207-0.132-0.207-0.311v-0.74h4.164v0.74c0,0.179-0.062,0.281-0.185,0.307c-0.124,0.025-0.476,0.096-1.057,0.211
					v4.25h6.656v-4.25c-0.552-0.109-0.897-0.178-1.035-0.207c-0.138-0.028-0.207-0.132-0.207-0.311v-0.74h4.173v0.74
					c0,0.179-0.089,0.285-0.268,0.319L98.732,55.353z"/>
				<path d="M113.153,54.095v0.74c0,0.179-0.089,0.285-0.268,0.319l-0.982,0.198v6.25c0,1.455-0.437,2.645-1.311,3.57
					c-0.902,0.947-2.104,1.422-3.604,1.422c-1.494,0-2.695-0.475-3.604-1.422c-0.88-0.926-1.319-2.115-1.319-3.57v-6.25
					c-0.552-0.109-0.879-0.176-0.982-0.198c-0.173-0.034-0.259-0.141-0.259-0.319v-0.74h4.319v0.74c0,0.179-0.09,0.285-0.268,0.319
					c-0.086,0.018-0.469,0.083-1.146,0.198v6.242c0,1.052,0.287,1.896,0.862,2.534c0.592,0.661,1.391,0.991,2.396,0.991
					s1.805-0.327,2.396-0.982c0.569-0.638,0.854-1.482,0.854-2.535v-6.25c-0.672-0.115-1.052-0.182-1.138-0.198
					c-0.179-0.034-0.268-0.141-0.268-0.319v-0.74h1.405h1.664H113.153z"/>
				<path d="M116.729,57.37v7.819c0.62,0.104,1.01,0.171,1.168,0.202c0.158,0.032,0.237,0.137,0.237,0.315v0.741h-4.113v-0.741
					c0-0.179,0.087-0.284,0.259-0.319l0.983-0.198v-9.837c-0.552-0.109-0.88-0.176-0.983-0.198
					c-0.172-0.034-0.259-0.141-0.259-0.319v-0.74h2.475c0.149,0,0.265,0.014,0.345,0.043c0.081,0.028,0.158,0.108,0.233,0.24
					l4.268,7.604c0.103,0.173,0.232,0.472,0.388,0.896c0.12-0.333,0.253-0.635,0.396-0.905l4.182-7.596
					c0.074-0.132,0.152-0.212,0.232-0.24c0.08-0.029,0.195-0.044,0.345-0.043h2.483v0.74c-0.001,0.179-0.09,0.285-0.268,0.319
					c-0.649,0.132-0.978,0.198-0.983,0.198v9.837c0.558,0.109,0.886,0.175,0.983,0.198c0.178,0.035,0.268,0.141,0.268,0.319v0.741
					h-4.121v-0.741c0-0.179,0.083-0.284,0.25-0.319c0.166-0.034,0.552-0.101,1.155-0.198V57.37c0-0.253,0.011-0.523,0.034-0.811
					l-4.233,7.725c-0.144,0.259-0.345,0.389-0.604,0.389h-0.241c-0.259,0-0.46-0.13-0.604-0.389l-4.327-7.75
					C116.711,56.833,116.729,57.111,116.729,57.37z"/>
				<path d="M142.797,65.767v0.682h-3.543v-0.682c0-0.154,0.077-0.252,0.232-0.293l0.707-0.197l-0.966-2.492h-5.328l-0.965,2.492
					l0.706,0.197c0.155,0.041,0.233,0.139,0.233,0.293v0.682h-3.544v-0.682c0-0.154,0.075-0.25,0.225-0.284l0.689-0.206
					l4.475-11.182h1.698l4.466,11.182l0.689,0.206C142.722,65.517,142.797,65.612,142.797,65.767z M138.762,61.577l-1.827-4.742
					c-0.127-0.31-0.25-0.697-0.371-1.163c-0.138,0.506-0.259,0.896-0.362,1.173l-1.836,4.732H138.762z"/>
				<path d="M153.604,62.845v-7.492c-0.673-0.115-1.055-0.182-1.146-0.198c-0.173-0.034-0.259-0.141-0.259-0.319v-0.74h1.405h1.466
					h1.25v0.74c0,0.179-0.089,0.285-0.268,0.319l-0.982,0.198v11.096h-0.845c-0.236,0-0.435-0.101-0.595-0.302l-7.147-9.302
					c0.023,0.293,0.034,0.561,0.034,0.801v7.544c0.679,0.115,1.061,0.181,1.146,0.198c0.173,0.035,0.259,0.141,0.259,0.319v0.741
					h-4.112v-0.741c0-0.179,0.087-0.284,0.259-0.319l0.983-0.198v-9.837c-0.552-0.109-0.88-0.176-0.983-0.198
					c-0.172-0.034-0.259-0.141-0.259-0.319v-0.74h2.104c0.149,0,0.261,0.018,0.332,0.055c0.072,0.038,0.154,0.114,0.246,0.229
					l7.155,9.312C153.619,63.442,153.604,63.161,153.604,62.845z"/>
				<path d="M160.102,55.353v9.837c0.558,0.109,0.905,0.179,1.044,0.207c0.138,0.028,0.206,0.132,0.206,0.311v0.741h-4.164v-0.741
					c0-0.179,0.087-0.284,0.259-0.319l0.983-0.198v-9.837c-0.552-0.109-0.896-0.178-1.035-0.207
					c-0.138-0.028-0.207-0.132-0.207-0.311v-0.74h4.164v0.74c0,0.179-0.089,0.285-0.267,0.319L160.102,55.353z"/>
				<path d="M173.812,62.802c-0.293,0.758-0.707,1.408-1.241,1.948c-1.121,1.132-2.589,1.698-4.405,1.698h-5.699v-0.741
					c0-0.179,0.087-0.284,0.259-0.319l0.983-0.198v-9.837c-0.552-0.109-0.88-0.176-0.983-0.198
					c-0.172-0.034-0.259-0.141-0.259-0.319v-0.74h5.699c1.821,0,3.29,0.565,4.405,1.697c1.121,1.145,1.681,2.639,1.681,4.483
					C174.251,61.2,174.104,62.043,173.812,62.802z M172.226,58.241c-0.207-0.598-0.5-1.104-0.88-1.518
					c-0.775-0.851-1.836-1.275-3.181-1.275h-2.776v9.646h2.776c1.339,0,2.399-0.426,3.181-1.275c0.793-0.857,1.19-2.038,1.19-3.544
					C172.536,59.517,172.433,58.839,172.226,58.241z"/>
				<path d="M187.231,65.767v0.682h-3.543v-0.682c0-0.154,0.077-0.252,0.232-0.293l0.707-0.197l-0.966-2.492h-5.328l-0.966,2.492
					l0.707,0.197c0.155,0.041,0.233,0.139,0.233,0.293v0.682h-3.544v-0.682c0-0.154,0.075-0.25,0.225-0.284l0.689-0.206
					l4.475-11.182h1.698l4.466,11.182l0.689,0.206C187.156,65.517,187.231,65.612,187.231,65.767z M183.196,61.577l-1.827-4.742
					c-0.127-0.31-0.25-0.697-0.371-1.163c-0.138,0.506-0.259,0.896-0.362,1.173l-1.836,4.732H183.196z"/>
				<path d="M199.591,62.802c-0.293,0.758-0.707,1.408-1.241,1.948c-1.121,1.132-2.589,1.698-4.405,1.698h-5.699v-0.741
					c0-0.179,0.087-0.284,0.259-0.319l0.983-0.198v-9.837c-0.552-0.109-0.88-0.176-0.983-0.198
					c-0.172-0.034-0.259-0.141-0.259-0.319v-0.74h5.699c1.821,0,3.29,0.565,4.405,1.697c1.121,1.145,1.681,2.639,1.681,4.483
					C200.03,61.2,199.884,62.043,199.591,62.802z M198.005,58.241c-0.207-0.598-0.5-1.104-0.88-1.518
					c-0.775-0.851-1.836-1.275-3.181-1.275h-2.776v9.646h2.776c1.339,0,2.399-0.426,3.181-1.275c0.793-0.857,1.19-2.038,1.19-3.544
					C198.315,59.517,198.212,58.839,198.005,58.241z"/>
				<path d="M209.916,54.095v2.982h-0.828c-0.201,0-0.321-0.101-0.361-0.302c-0.012-0.052-0.053-0.491-0.121-1.319h-4.621v4.104
					h4.552v1.311h-4.552v4.216h4.63c0.063-0.765,0.101-1.173,0.112-1.224c0.04-0.195,0.16-0.293,0.361-0.293h0.828v2.879h-8.854
					v-0.741c0-0.179,0.087-0.284,0.259-0.319l0.983-0.198v-9.837c-0.552-0.109-0.88-0.176-0.983-0.198
					c-0.172-0.034-0.259-0.141-0.259-0.319v-0.74H209.916z"/>
				<path d="M218.947,62.698c0,1.127-0.359,2.046-1.078,2.759c-0.765,0.753-1.784,1.13-3.061,1.13c-0.534,0-1.099-0.055-1.694-0.164
					c-0.595-0.109-1.059-0.219-1.392-0.328l-0.492-0.172v-3.096h0.837c0.195,0,0.313,0.098,0.354,0.293
					c0.017,0.075,0.044,0.359,0.082,0.854c0.037,0.494,0.056,0.744,0.056,0.75c0.851,0.316,1.546,0.475,2.086,0.475
					c0.541,0,0.966-0.055,1.276-0.164s0.575-0.264,0.793-0.465c0.442-0.408,0.664-0.951,0.664-1.63c0-0.655-0.308-1.161-0.923-1.518
					c-0.275-0.161-0.589-0.299-0.939-0.413c-1.092-0.34-1.816-0.588-2.173-0.746s-0.672-0.361-0.948-0.607
					c-0.614-0.553-0.922-1.32-0.922-2.303c0-0.92,0.33-1.703,0.991-2.354c0.707-0.695,1.625-1.043,2.754-1.043
					c1.13,0,2.283,0.236,3.462,0.707v2.836h-0.836c-0.201,0-0.319-0.098-0.354-0.293c-0.012-0.034-0.058-0.546-0.139-1.534
					c-0.77-0.219-1.448-0.327-2.034-0.327c-0.725,0-1.293,0.186-1.707,0.56c-0.391,0.345-0.586,0.8-0.586,1.362
					c0,0.604,0.311,1.084,0.931,1.439c0.276,0.161,0.595,0.303,0.957,0.423c1.034,0.345,1.756,0.606,2.164,0.784
					C218.323,60.477,218.947,61.405,218.947,62.698z"/>
			</g>
		</g>
	</g>
</g>
</svg>
